<svg xmlns="http://www.w3.org/2000/svg" shape-rendering="geometricPrecision" text-rendering="geometricPrecision" image-rendering="optimizeQuality" fill-rule="evenodd" clip-rule="evenodd" viewBox="0 0 512 512"><path d="M189.759 8.784c136.533-36.583 276.872 44.442 313.456 180.974 36.585 136.534-44.441 276.873-180.974 313.457S45.369 458.773 8.785 322.241C-27.8 185.708 53.226 45.368 189.759 8.784zM119.191 295.6c69.524 90.131 212.547 88.174 274.078-.172l10.027 9.973c-68.927 116.97-214.851 121.104-294.594.63l10.489-10.431zm71.566-161.137c17.913 0 32.433 21.028 32.433 46.965 0 25.939-14.52 46.965-32.433 46.965s-32.434-21.026-32.434-46.965c0-25.937 14.521-46.965 32.434-46.965zm130.487 0c17.912 0 32.433 21.028 32.433 46.965 0 25.939-14.521 46.965-32.433 46.965-17.913 0-32.434-21.026-32.434-46.965 0-25.937 14.521-46.965 32.434-46.965z"/></svg>